<svg width="129" height="26" viewBox="0 0 129 26" fill="none" xmlns="http://www.w3.org/2000/svg">
<path fill-rule="evenodd" clip-rule="evenodd" d="M7.86751 8.1038C7.55951 7.93695 7.17124 7.80581 6.93141 7.73823C6.55247 7.63108 6.03823 7.52476 5.64791 7.56534L4.875 7.64567L5.18402 6.82767C5.96933 4.75097 8.88374 4.4399 10.6562 4.46908C11.9453 3.30748 13.9325 3.07791 15.4922 3.35779C17.809 3.77316 19.9479 5.37881 20.1931 8.22655C20.5275 8.76233 20.8494 9.3308 21.0621 9.94288C21.2197 10.3956 21.073 10.9105 20.7129 11.1685C20.4934 11.326 20.2347 11.3602 20.0016 11.2812C17.9318 5.91995 6.71494 4.46791 6.13135 14.625C6.09545 11.7362 6.67348 9.56406 7.86517 8.10732L7.86751 8.1038Z" fill="url(#paint0_linear_6585_192897)"/>
<path fill-rule="evenodd" clip-rule="evenodd" d="M10.719 12.2293C11.6384 10.5116 13.4227 9.34656 15.4729 9.34656C17.0058 9.34656 18.4599 10.0085 19.4897 11.1695L19.5 11.1808C12.7188 2.00526 -3.52143 15.7556 15.2609 22.75C12.3755 20.381 8.40635 16.3649 10.719 12.2293Z" fill="url(#paint1_linear_6585_192897)"/>
<path fill-rule="evenodd" clip-rule="evenodd" d="M46.8797 10.4345C46.2069 9.78083 45.2711 9.45398 44.072 9.45398C42.8726 9.45398 41.9293 9.78083 41.2421 10.4345C40.7156 10.9362 40.3718 11.5519 40.2109 12.2815H47.8451C47.7135 11.5519 47.3916 10.9362 46.8797 10.4345ZM40.1496 14.2206C40.3985 16.2274 41.6853 17.2309 44.0105 17.2309C45.9117 17.2309 47.1913 16.4022 47.8497 14.7452H50.0214C49.4069 16.5847 48.5369 17.801 47.4108 18.3938C46.431 18.9106 45.2828 19.1691 43.9667 19.1691C42.0215 19.1691 40.5299 18.6292 39.4917 17.55C38.497 16.5315 38 15.1405 38 13.3769C38 11.6894 38.5482 10.2909 39.6452 9.18121C40.742 8.07131 42.2192 7.51648 44.0765 7.51648C45.8898 7.51648 47.3522 8.01063 48.4636 8.99868C49.5753 9.98698 50.1309 11.3096 50.1309 12.9666V14.1979L40.1496 14.2206Z" fill="#18181B"/>
<path fill-rule="evenodd" clip-rule="evenodd" d="M56.9844 18.9179H55.3829L49.6794 7.78992H52.0926L56.1509 15.9305L59.924 7.78992H62.2274L56.9844 18.9179Z" fill="#18181B"/>
<path fill-rule="evenodd" clip-rule="evenodd" d="M71.1522 10.5144C70.4428 9.80755 69.4373 9.45398 68.1359 9.45398C66.8489 9.45398 65.8508 9.81155 65.1415 10.5259C64.4321 11.2403 64.0776 12.1829 64.0776 13.3535C64.0776 14.5088 64.4357 15.4437 65.1525 16.1583C65.8691 16.8727 66.8635 17.2303 68.1359 17.2303C69.4083 17.2303 70.4063 16.8727 71.1303 16.1583C71.854 15.4437 72.216 14.5088 72.216 13.3535C72.216 12.1677 71.8615 11.2213 71.1522 10.5144ZM72.6361 17.55C71.5097 18.6292 70.0036 19.1688 68.1171 19.1688C66.2305 19.1688 64.7313 18.6292 63.6199 17.55C62.5085 16.4706 61.9526 15.0721 61.9526 13.3541C61.9526 11.6362 62.5159 10.2339 63.6418 9.147C64.7679 8.05982 66.2742 7.51648 68.1608 7.51648C70.0474 7.51648 71.5463 8.05982 72.6579 9.147C73.7694 10.2339 74.325 11.6362 74.325 13.3541C74.325 15.0721 73.7622 16.4706 72.6361 17.55Z" fill="#18181B"/>
<path fill-rule="evenodd" clip-rule="evenodd" d="M75.5781 18.9147H77.684V3.45398H75.5781V18.9147Z" fill="#18181B"/>
<path fill-rule="evenodd" clip-rule="evenodd" d="M88.432 10.6182C87.7812 9.8734 86.8562 9.50085 85.6571 9.50085C84.4287 9.50085 83.4599 9.86566 82.7506 10.5953C82.0413 11.3251 81.6865 12.283 81.6865 13.4685C81.6865 16.1897 83.0026 17.5506 85.635 17.5506C86.849 17.5506 87.7923 17.1703 88.4651 16.4102C89.094 15.6958 89.4082 14.7305 89.4082 13.5142C89.4082 12.3284 89.0829 11.3628 88.432 10.6182ZM90.0049 17.778C88.9374 18.9638 87.4529 19.5566 85.5517 19.5566C84.0163 19.5566 82.7293 19.1234 81.6909 18.2569V22.7492H79.585V7.76717H81.6909V8.79343C82.7293 7.94196 84.0088 7.51648 85.5298 7.51648C87.4164 7.51648 88.9009 8.08654 89.983 9.22665C90.9921 10.3213 91.4966 11.7426 91.4966 13.491C91.4966 15.2696 90.9993 16.6988 90.0049 17.778Z" fill="#18181B"/>
<path fill-rule="evenodd" clip-rule="evenodd" d="M101.444 18.9147V11.5035C101.444 9.89191 100.479 9.08639 98.5482 9.08639C97.4514 9.08639 96.5996 9.39801 95.9926 10.0215C95.3856 10.6447 95.0822 11.4655 95.0822 12.484V18.9147H92.9763V3.45398H95.0822V8.10583C96.0036 7.43689 97.1516 7.1023 98.5263 7.1023C99.9303 7.1023 101.086 7.43689 101.992 8.10583C103.031 8.85067 103.55 9.91488 103.55 11.2982V18.9147H101.444Z" fill="#18181B"/>
<path fill-rule="evenodd" clip-rule="evenodd" d="M105.498 18.9132H107.604V7.32898H105.498V18.9132ZM106.507 6.58006C106.039 6.58006 105.703 6.30639 105.498 5.75931V4.07186C105.747 3.52452 106.083 3.25085 106.507 3.25085C106.844 3.25085 107.209 3.48657 107.604 3.95775V5.89614C107.224 6.35234 106.858 6.58006 106.507 6.58006Z" fill="#18181B"/>
<path fill-rule="evenodd" clip-rule="evenodd" d="M117.975 18.9184V11.7808C117.975 10.2302 117.01 9.45487 115.08 9.45487C113.983 9.45487 113.131 9.75526 112.524 10.3555C111.917 10.9561 111.614 11.7428 111.614 12.7157V18.9184H109.508V7.74445H111.614V8.49729C112.535 7.84333 113.683 7.51648 115.058 7.51648C116.462 7.51648 117.617 7.83584 118.524 8.47432C119.562 9.20393 120.081 10.2377 120.081 11.5755V18.9184H117.975Z" fill="#18181B"/>
<path d="M124.136 4.93054C124.973 4.93054 125.549 5.35734 125.816 5.83233V5.00627H126.57V9.52894H125.816V8.68911C125.542 9.17787 124.959 9.60467 124.13 9.60467C122.93 9.60467 121.998 8.6547 121.998 7.2504C121.998 5.8461 122.93 4.93054 124.136 4.93054ZM124.287 5.5845C123.465 5.5845 122.765 6.19029 122.765 7.2504C122.765 8.31051 123.465 8.94382 124.287 8.94382C125.11 8.94382 125.816 8.32428 125.816 7.25728C125.816 6.19029 125.11 5.5845 124.287 5.5845Z" fill="#18181B"/>
<path d="M127.717 3.76025C127.717 3.47114 127.936 3.25085 128.224 3.25085C128.497 3.25085 128.717 3.47114 128.717 3.76025C128.717 4.04937 128.497 4.26966 128.224 4.26966C127.936 4.26966 127.717 4.04937 127.717 3.76025ZM127.84 5.00623H128.587V9.52891H127.84V5.00623Z" fill="#18181B"/>
<defs>
<linearGradient id="paint0_linear_6585_192897" x1="13" y1="3.25" x2="13" y2="14.625" gradientUnits="userSpaceOnUse">
<stop stop-color="#F72585"/>
<stop offset="1" stop-color="#FC7932"/>
</linearGradient>
<linearGradient id="paint1_linear_6585_192897" x1="13" y1="8.125" x2="13" y2="22.75" gradientUnits="userSpaceOnUse">
<stop stop-color="#F72585"/>
<stop offset="1" stop-color="#FC7932"/>
</linearGradient>
</defs>
</svg>
