<svg width="26" height="26" viewBox="0 0 26 26" fill="none" xmlns="http://www.w3.org/2000/svg">
<path fill-rule="evenodd" clip-rule="evenodd" d="M7.86751 8.1038C7.55951 7.93695 7.17124 7.80581 6.93141 7.73823C6.55247 7.63108 6.03823 7.52476 5.64791 7.56534L4.875 7.64567L5.18402 6.82767C5.96933 4.75097 8.88374 4.4399 10.6562 4.46908C11.9453 3.30748 13.9325 3.07791 15.4922 3.35779C17.809 3.77316 19.9479 5.37881 20.1931 8.22655C20.5275 8.76233 20.8494 9.3308 21.0621 9.94288C21.2197 10.3956 21.073 10.9105 20.7129 11.1685C20.4934 11.326 20.2347 11.3602 20.0016 11.2812C17.9318 5.91995 6.71494 4.46791 6.13135 14.625C6.09545 11.7362 6.67348 9.56406 7.86517 8.10732L7.86751 8.1038Z" fill="url(#paint0_linear_6585_192898)"/>
<path fill-rule="evenodd" clip-rule="evenodd" d="M10.719 12.2293C11.6384 10.5116 13.4227 9.34656 15.4729 9.34656C17.0058 9.34656 18.4599 10.0085 19.4897 11.1695L19.5 11.1808C12.7188 2.00526 -3.52143 15.7556 15.2609 22.75C12.3755 20.381 8.40635 16.3649 10.719 12.2293Z" fill="url(#paint1_linear_6585_192898)"/>
<defs>
<linearGradient id="paint0_linear_6585_192898" x1="13" y1="3.25" x2="13" y2="14.625" gradientUnits="userSpaceOnUse">
<stop stop-color="#F72585"/>
<stop offset="1" stop-color="#FC7932"/>
</linearGradient>
<linearGradient id="paint1_linear_6585_192898" x1="13" y1="8.125" x2="13" y2="22.75" gradientUnits="userSpaceOnUse">
<stop stop-color="#F72585"/>
<stop offset="1" stop-color="#FC7932"/>
</linearGradient>
</defs>
</svg>
