<svg width="91" height="20" viewBox="0 0 91 20" fill="none" xmlns="http://www.w3.org/2000/svg">
<path fill-rule="evenodd" clip-rule="evenodd" d="M8.87975 7.18368C8.20693 6.52998 7.27108 6.20312 6.07197 6.20312C4.87262 6.20312 3.92933 6.52998 3.2421 7.18368C2.71556 7.68532 2.37183 8.30108 2.21089 9.03069H9.84514C9.7135 8.30108 9.39163 7.68532 8.87975 7.18368ZM2.14961 10.9697C2.39846 12.9765 3.68525 13.9801 6.01045 13.9801C7.91169 13.9801 9.19127 13.1513 9.84967 11.4943H12.0214C11.4069 13.3339 10.5369 14.5501 9.41082 15.1429C8.43101 15.6598 7.28282 15.9182 5.96673 15.9182C4.02154 15.9182 2.52986 15.3784 1.49168 14.2992C0.496988 13.2807 0 11.8896 0 10.126C0 8.43856 0.548152 7.04 1.64518 5.93035C2.74196 4.82045 4.21923 4.26562 6.07651 4.26562C7.88983 4.26562 9.35221 4.75977 10.4636 5.74782C11.5753 6.73612 12.1309 8.05877 12.1309 9.71575V10.947L2.14961 10.9697Z" fill="white"/>
<path fill-rule="evenodd" clip-rule="evenodd" d="M18.9844 15.667H17.3829L11.6794 4.53906H14.0926L18.1509 12.6797L21.924 4.53906H24.2274L18.9844 15.667Z" fill="white"/>
<path fill-rule="evenodd" clip-rule="evenodd" d="M33.1522 7.26359C32.4428 6.5567 31.4373 6.20312 30.1359 6.20312C28.8489 6.20312 27.8508 6.56069 27.1415 7.27507C26.4321 7.98946 26.0776 8.93206 26.0776 10.1026C26.0776 11.258 26.4357 12.1929 27.1525 12.9075C27.8691 13.6219 28.8635 13.9794 30.1359 13.9794C31.4083 13.9794 32.4063 13.6219 33.1303 12.9075C33.854 12.1929 34.216 11.258 34.216 10.1026C34.216 8.91683 33.8615 7.97048 33.1522 7.26359ZM34.6361 14.2992C33.5097 15.3784 32.0036 15.918 30.1171 15.918C28.2305 15.918 26.7313 15.3784 25.6199 14.2992C24.5085 13.2198 23.9526 11.8212 23.9526 10.1033C23.9526 8.38537 24.5159 6.98307 25.6418 5.89614C26.7679 4.80897 28.2742 4.26562 30.1608 4.26562C32.0474 4.26562 33.5463 4.80897 34.6579 5.89614C35.7694 6.98307 36.325 8.38537 36.325 10.1033C36.325 11.8212 35.7622 13.2198 34.6361 14.2992Z" fill="white"/>
<path fill-rule="evenodd" clip-rule="evenodd" d="M37.5781 15.6638H39.684V0.203125H37.5781V15.6638Z" fill="white"/>
<path fill-rule="evenodd" clip-rule="evenodd" d="M50.432 7.36739C49.7812 6.62255 48.8562 6.25 47.6571 6.25C46.4287 6.25 45.4599 6.61481 44.7506 7.34442C44.0413 8.07428 43.6865 9.03212 43.6865 10.2177C43.6865 12.9389 45.0026 14.2997 47.635 14.2997C48.849 14.2997 49.7923 13.9194 50.4651 13.1594C51.094 12.445 51.4082 11.4796 51.4082 10.2634C51.4082 9.07757 51.0829 8.11199 50.432 7.36739ZM52.0049 14.5272C50.9374 15.713 49.4529 16.3057 47.5517 16.3057C46.0163 16.3057 44.7293 15.8725 43.6909 15.0061V19.4984H41.585V4.51632H43.6909V5.54257C44.7293 4.69111 46.0088 4.26562 47.5298 4.26562C49.4164 4.26562 50.9009 4.83568 51.983 5.9758C52.9921 7.07047 53.4966 8.49174 53.4966 10.2401C53.4966 12.0187 52.9993 13.448 52.0049 14.5272Z" fill="white"/>
<path fill-rule="evenodd" clip-rule="evenodd" d="M63.4438 15.6638V8.2526C63.4438 6.64106 62.4787 5.83553 60.5482 5.83553C59.4514 5.83553 58.5996 6.14716 57.9926 6.77065C57.3856 7.39389 57.0822 8.21464 57.0822 9.23316V15.6638H54.9763V0.203125H57.0822V4.85497C58.0036 4.18604 59.1516 3.85144 60.5263 3.85144C61.9303 3.85144 63.0857 4.18604 63.9922 4.85497C65.0306 5.59982 65.55 6.66403 65.55 8.04735V15.6638H63.4438Z" fill="white"/>
<path fill-rule="evenodd" clip-rule="evenodd" d="M67.4983 15.6623H69.6042V4.07812H67.4983V15.6623ZM68.5074 3.32921C68.0395 3.32921 67.7029 3.05554 67.4983 2.50845V0.821003C67.7469 0.273668 68.0832 0 68.5074 0C68.8437 0 69.2093 0.235714 69.6039 0.706891V2.64529C69.2239 3.10148 68.8583 3.32921 68.5074 3.32921Z" fill="white"/>
<path fill-rule="evenodd" clip-rule="evenodd" d="M79.9753 15.6675V8.52995C79.9753 6.97933 79.0102 6.20402 77.0796 6.20402C75.9829 6.20402 75.1311 6.50441 74.5243 7.10468C73.9171 7.7052 73.6139 8.49199 73.6139 9.46481V15.6675H71.5078V4.4936H73.6139V5.24643C74.5354 4.59248 75.6831 4.26562 77.0578 4.26562C78.4618 4.26562 79.6172 4.58499 80.5237 5.22346C81.5621 5.95308 82.0815 6.98682 82.0815 8.32469V15.6675H79.9753Z" fill="white"/>
<path d="M86.1363 1.67969C86.9725 1.67969 87.5486 2.10649 87.8156 2.58147V1.75542H88.5701V6.27809H87.8156V5.43826C87.5418 5.92701 86.9591 6.35381 86.1296 6.35381C84.9303 6.35381 83.998 5.40384 83.998 3.99954C83.998 2.59524 84.9303 1.67969 86.1363 1.67969ZM86.287 2.33365C85.465 2.33365 84.7653 2.93943 84.7653 3.99954C84.7653 5.05965 85.465 5.69297 86.287 5.69297C87.1098 5.69297 87.8156 5.07342 87.8156 4.00643C87.8156 2.93943 87.1098 2.33365 86.287 2.33365Z" fill="white"/>
<path d="M89.7166 0.5094C89.7166 0.220282 89.9355 0 90.2235 0C90.4973 0 90.7171 0.220282 90.7171 0.5094C90.7171 0.798517 90.4973 1.01881 90.2235 1.01881C89.9355 1.01881 89.7166 0.798517 89.7166 0.5094ZM89.8396 1.75537H90.5865V6.27806H89.8396V1.75537Z" fill="white"/>
</svg>
